<svg width="44" height="44" viewBox="0 0 44 44" fill="none" xmlns="http://www.w3.org/2000/svg">
<mask id="mask0_1389_19" style="mask-type:alpha" maskUnits="userSpaceOnUse" x="0" y="0" width="44" height="44">
<rect width="44" height="44" fill="#D9D9D9"/>
</mask>
<g mask="url(#mask0_1389_19)">
<path d="M10.7253 31.3503C12.2837 30.1587 14.0253 29.2191 15.9503 28.5316C17.8753 27.8441 19.892 27.5003 22.0003 27.5003C24.1087 27.5003 26.1253 27.8441 28.0503 28.5316C29.9753 29.2191 31.717 30.1587 33.2753 31.3503C34.3448 30.0975 35.1774 28.6767 35.7732 27.0878C36.3691 25.4989 36.667 23.8031 36.667 22.0003C36.667 17.9364 35.2385 14.476 32.3816 11.6191C29.5246 8.76213 26.0642 7.33366 22.0003 7.33366C17.9364 7.33366 14.476 8.76213 11.6191 11.6191C8.76213 14.476 7.33366 17.9364 7.33366 22.0003C7.33366 23.8031 7.63158 25.4989 8.22741 27.0878C8.82324 28.6767 9.65588 30.0975 10.7253 31.3503ZM22.0003 23.8337C20.1975 23.8337 18.6774 23.2149 17.4399 21.9774C16.2024 20.7399 15.5837 19.2198 15.5837 17.417C15.5837 15.6142 16.2024 14.0941 17.4399 12.8566C18.6774 11.6191 20.1975 11.0003 22.0003 11.0003C23.8031 11.0003 25.3232 11.6191 26.5607 12.8566C27.7982 14.0941 28.417 15.6142 28.417 17.417C28.417 19.2198 27.7982 20.7399 26.5607 21.9774C25.3232 23.2149 23.8031 23.8337 22.0003 23.8337ZM22.0003 40.3337C19.4642 40.3337 17.0809 39.8524 14.8503 38.8899C12.6198 37.9274 10.6795 36.6212 9.02949 34.9712C7.37949 33.3212 6.07324 31.3809 5.11074 29.1503C4.14824 26.9198 3.66699 24.5364 3.66699 22.0003C3.66699 19.4642 4.14824 17.0809 5.11074 14.8503C6.07324 12.6198 7.37949 10.6795 9.02949 9.02949C10.6795 7.37949 12.6198 6.07324 14.8503 5.11074C17.0809 4.14824 19.4642 3.66699 22.0003 3.66699C24.5364 3.66699 26.9198 4.14824 29.1503 5.11074C31.3809 6.07324 33.3212 7.37949 34.9712 9.02949C36.6212 10.6795 37.9274 12.6198 38.8899 14.8503C39.8524 17.0809 40.3337 19.4642 40.3337 22.0003C40.3337 24.5364 39.8524 26.9198 38.8899 29.1503C37.9274 31.3809 36.6212 33.3212 34.9712 34.9712C33.3212 36.6212 31.3809 37.9274 29.1503 38.8899C26.9198 39.8524 24.5364 40.3337 22.0003 40.3337ZM22.0003 36.667C23.6198 36.667 25.1475 36.4302 26.5837 35.9566C28.0198 35.483 29.3337 34.8031 30.5253 33.917C29.3337 33.0309 28.0198 32.351 26.5837 31.8774C25.1475 31.4038 23.6198 31.167 22.0003 31.167C20.3809 31.167 18.8531 31.4038 17.417 31.8774C15.9809 32.351 14.667 33.0309 13.4753 33.917C14.667 34.8031 15.9809 35.483 17.417 35.9566C18.8531 36.4302 20.3809 36.667 22.0003 36.667ZM22.0003 20.167C22.7948 20.167 23.4517 19.9073 23.9712 19.3878C24.4906 18.8684 24.7503 18.2114 24.7503 17.417C24.7503 16.6225 24.4906 15.9656 23.9712 15.4462C23.4517 14.9267 22.7948 14.667 22.0003 14.667C21.2059 14.667 20.5489 14.9267 20.0295 15.4462C19.51 15.9656 19.2503 16.6225 19.2503 17.417C19.2503 18.2114 19.51 18.8684 20.0295 19.3878C20.5489 19.9073 21.2059 20.167 22.0003 20.167Z" fill="white"/>
</g>
</svg>
