<svg width="45" height="45" viewBox="0 0 45 45" fill="none" xmlns="http://www.w3.org/2000/svg">
<mask id="mask0_1750_24" style="mask-type:alpha" maskUnits="userSpaceOnUse" x="0" y="0" width="45" height="45">
<rect width="45" height="45" fill="#D9D9D9"/>
</mask>
<g mask="url(#mask0_1750_24)">
<path d="M31.875 41.25V35.625H26.25V31.875H31.875V26.25H35.625V31.875H41.25V35.625H35.625V41.25H31.875ZM9.375 37.5C8.34375 37.5 7.46094 37.1328 6.72656 36.3984C5.99219 35.6641 5.625 34.7813 5.625 33.75V11.25C5.625 10.2187 5.99219 9.33594 6.72656 8.60156C7.46094 7.86719 8.34375 7.5 9.375 7.5H11.25V3.75H15V7.5H26.25V3.75H30V7.5H31.875C32.9063 7.5 33.7891 7.86719 34.5234 8.60156C35.2578 9.33594 35.625 10.2187 35.625 11.25V22.6875C35 22.5938 34.375 22.5469 33.75 22.5469C33.125 22.5469 32.5 22.5938 31.875 22.6875V18.75H9.375V33.75H22.5C22.5 34.375 22.5469 35 22.6406 35.625C22.7344 36.25 22.9063 36.875 23.1563 37.5H9.375ZM9.375 15H31.875V11.25H9.375V15Z" fill="white"/>
</g>
</svg>
