<svg width="45" height="45" viewBox="0 0 45 45" fill="none" xmlns="http://www.w3.org/2000/svg">
<mask id="mask0_1376_13" style="mask-type:alpha" maskUnits="userSpaceOnUse" x="0" y="0" width="45" height="45">
<rect width="45" height="45" fill="#D9D9D9"/>
</mask>
<g mask="url(#mask0_1376_13)">
<path d="M22.5 33.75L30 26.25L27.375 23.625L24.375 26.625V18.75H20.625V26.625L17.625 23.625L15 26.25L22.5 33.75ZM9.375 15V35.625H35.625V15H9.375ZM9.375 39.375C8.34375 39.375 7.46094 39.0078 6.72656 38.2734C5.99219 37.5391 5.625 36.6563 5.625 35.625V12.2344C5.625 11.7969 5.69531 11.375 5.83594 10.9688C5.97656 10.5625 6.1875 10.1875 6.46875 9.84375L8.8125 6.98438C9.15625 6.54688 9.58594 6.21094 10.1016 5.97656C10.6172 5.74219 11.1562 5.625 11.7188 5.625H33.2812C33.8438 5.625 34.3828 5.74219 34.8984 5.97656C35.4141 6.21094 35.8438 6.54688 36.1875 6.98438L38.5313 9.84375C38.8125 10.1875 39.0234 10.5625 39.1641 10.9688C39.3047 11.375 39.375 11.7969 39.375 12.2344V35.625C39.375 36.6563 39.0078 37.5391 38.2734 38.2734C37.5391 39.0078 36.6563 39.375 35.625 39.375H9.375ZM10.125 11.25H34.875L33.2812 9.375H11.7188L10.125 11.25Z" fill="white"/>
</g>
</svg>
