<svg width="39" height="39" viewBox="0 0 39 39" fill="none" xmlns="http://www.w3.org/2000/svg">
<path d="M19.5 38.25C16.9063 38.25 14.4687 37.7578 12.1875 36.7734C9.90625 35.7891 7.92187 34.4531 6.23437 32.7656C4.54687 31.0781 3.21094 29.0938 2.22656 26.8125C1.24219 24.5313 0.75 22.0937 0.75 19.5C0.75 16.9063 1.24219 14.4687 2.22656 12.1875C3.21094 9.90625 4.54687 7.92187 6.23437 6.23437C7.92187 4.54687 9.90625 3.21094 12.1875 2.22656C14.4687 1.24219 16.9063 0.75 19.5 0.75C22.0937 0.75 24.5313 1.24219 26.8125 2.22656C29.0938 3.21094 31.0781 4.54687 32.7656 6.23437C34.4531 7.92187 35.7891 9.90625 36.7734 12.1875C37.7578 14.4687 38.25 16.9063 38.25 19.5C38.25 22.0937 37.7578 24.5313 36.7734 26.8125C35.7891 29.0938 34.4531 31.0781 32.7656 32.7656C31.0781 34.4531 29.0938 35.7891 26.8125 36.7734C24.5313 37.7578 22.0937 38.25 19.5 38.25ZM19.5 34.5C21.1875 34.5 22.8125 34.2266 24.375 33.6797C25.9375 33.1328 27.375 32.3438 28.6875 31.3125L7.6875 10.3125C6.65625 11.625 5.86719 13.0625 5.32031 14.625C4.77344 16.1875 4.5 17.8125 4.5 19.5C4.5 23.6875 5.95313 27.2344 8.85938 30.1406C11.7656 33.0469 15.3125 34.5 19.5 34.5ZM31.3125 28.6875C32.3438 27.375 33.1328 25.9375 33.6797 24.375C34.2266 22.8125 34.5 21.1875 34.5 19.5C34.5 15.3125 33.0469 11.7656 30.1406 8.85938C27.2344 5.95313 23.6875 4.5 19.5 4.5C17.8125 4.5 16.1875 4.77344 14.625 5.32031C13.0625 5.86719 11.625 6.65625 10.3125 7.6875L31.3125 28.6875Z" fill="#FF0000"/>
</svg>
