<svg width="45" height="45" viewBox="0 0 45 45" fill="none" xmlns="http://www.w3.org/2000/svg">
<mask id="mask0_1968_13" style="mask-type:alpha" maskUnits="userSpaceOnUse" x="0" y="0" width="45" height="45">
<rect width="45" height="45" fill="#D9D9D9"/>
</mask>
<g mask="url(#mask0_1968_13)">
<path d="M12.6562 41.25C11.25 41.25 10.0391 40.7734 9.02344 39.8203C8.00781 38.8672 7.5 37.6875 7.5 36.2812V10.125C7.5 8.9375 7.86719 7.875 8.60156 6.9375C9.33594 6 10.2969 5.40625 11.4844 5.15625L30 1.5V31.5L12.2344 35.0625C11.9531 35.125 11.7188 35.2734 11.5313 35.5078C11.3438 35.7422 11.25 36 11.25 36.2812C11.25 36.625 11.3906 36.9141 11.6719 37.1484C11.9531 37.3828 12.2812 37.5 12.6562 37.5H33.75V7.5H37.5V41.25H12.6562ZM16.875 30.3281L26.25 28.5V6.09375L16.875 7.92187V30.3281ZM13.125 31.0781V8.67187L12.4219 8.8125C12.0781 8.875 11.7969 9.02344 11.5781 9.25781C11.3594 9.49219 11.25 9.78125 11.25 10.125V31.5469C11.4063 31.4844 11.5703 31.4297 11.7422 31.3828C11.9141 31.3359 12.0781 31.2969 12.2344 31.2656L13.125 31.0781Z" fill="white"/>
</g>
</svg>
