<svg width="44" height="44" viewBox="0 0 44 44" fill="none" xmlns="http://www.w3.org/2000/svg">
<mask id="mask0_1390_25" style="mask-type:alpha" maskUnits="userSpaceOnUse" x="0" y="0" width="44" height="44">
<rect width="44" height="44" fill="#D9D9D9"/>
</mask>
<g mask="url(#mask0_1390_25)">
<path d="M9.16667 14.667H34.8333V11.0003H9.16667V14.667ZM9.16667 40.3337C8.15833 40.3337 7.29514 39.9746 6.57708 39.2566C5.85903 38.5385 5.5 37.6753 5.5 36.667V11.0003C5.5 9.99199 5.85903 9.1288 6.57708 8.41074C7.29514 7.69269 8.15833 7.33366 9.16667 7.33366H11V3.66699H14.6667V7.33366H29.3333V3.66699H33V7.33366H34.8333C35.8417 7.33366 36.7049 7.69269 37.4229 8.41074C38.141 9.1288 38.5 9.99199 38.5 11.0003V21.4045C37.9194 21.1295 37.3236 20.9003 36.7125 20.717C36.1014 20.5337 35.475 20.3962 34.8333 20.3045V18.3337H9.16667V36.667H20.7167C20.9306 37.3392 21.1826 37.9809 21.4729 38.592C21.7632 39.2031 22.1069 39.7837 22.5042 40.3337H9.16667ZM33 42.167C30.4639 42.167 28.3021 41.2732 26.5146 39.4857C24.7271 37.6982 23.8333 35.5364 23.8333 33.0003C23.8333 30.4642 24.7271 28.3024 26.5146 26.5149C28.3021 24.7274 30.4639 23.8337 33 23.8337C35.5361 23.8337 37.6979 24.7274 39.4854 26.5149C41.2729 28.3024 42.1667 30.4642 42.1667 33.0003C42.1667 35.5364 41.2729 37.6982 39.4854 39.4857C37.6979 41.2732 35.5361 42.167 33 42.167ZM36.0708 37.3545L37.3542 36.0712L33.9167 32.6337V27.5003H32.0833V33.367L36.0708 37.3545Z" fill="white"/>
</g>
</svg>
