<svg width="48" height="45" viewBox="0 0 48 45" fill="none" xmlns="http://www.w3.org/2000/svg">
<mask id="mask0_1767_13" style="mask-type:alpha" maskUnits="userSpaceOnUse" x="0" y="0" width="48" height="45">
<rect width="47.1429" height="45" fill="#D9D9D9"/>
</mask>
<g mask="url(#mask0_1767_13)">
<path d="M39.1872 39.375C35.095 39.375 31.0518 38.5234 27.0578 36.8203C23.0637 35.1172 19.4298 32.7031 16.156 29.5781C12.8822 26.4531 10.3531 22.9844 8.56892 19.1719C6.78469 15.3594 5.89258 11.5 5.89258 7.59375C5.89258 7.03125 6.08901 6.5625 6.48186 6.1875C6.87472 5.8125 7.36579 5.625 7.95508 5.625H15.9104C16.3688 5.625 16.778 5.77344 17.1381 6.07031C17.4982 6.36719 17.711 6.71875 17.7765 7.125L19.0533 13.6875C19.1188 14.1875 19.1024 14.6094 19.0042 14.9531C18.906 15.2969 18.7259 15.5938 18.464 15.8438L13.7006 20.4375C14.3554 21.5938 15.1329 22.7109 16.0332 23.7891C16.9335 24.8672 17.9238 25.9063 19.0042 26.9063C20.0191 27.875 21.0831 28.7734 22.1962 29.6016C23.3092 30.4297 24.4878 31.1875 25.7319 31.875L30.3479 27.4688C30.6426 27.1875 31.0273 26.9766 31.502 26.8359C31.9767 26.6953 32.4432 26.6562 32.9015 26.7188L39.6783 28.0312C40.1366 28.1562 40.5131 28.3828 40.8078 28.7109C41.1024 29.0391 41.2497 29.4063 41.2497 29.8125V37.4063C41.2497 37.9688 41.0533 38.4375 40.6604 38.8125C40.2676 39.1875 39.7765 39.375 39.1872 39.375ZM11.8345 16.875L15.0756 13.7812L14.2408 9.375H9.87026C10.0339 10.6563 10.2631 11.9219 10.5578 13.1719C10.8524 14.4219 11.278 15.6562 11.8345 16.875ZM29.4149 33.6562C30.6917 34.1875 31.993 34.6094 33.3189 34.9219C34.6448 35.2344 35.9789 35.4375 37.3211 35.5312V31.4062L32.7051 30.5156L29.4149 33.6562Z" fill="white"/>
</g>
</svg>
