<svg width="39" height="39" viewBox="0 0 39 39" fill="none" xmlns="http://www.w3.org/2000/svg">
<circle cx="19.5" cy="19.5" r="19.5" fill="#20C073"/>
<mask id="mask0_1511_53" style="mask-type:alpha" maskUnits="userSpaceOnUse" x="8" y="8" width="24" height="24">
<rect x="8" y="8" width="24" height="24" fill="#D9D9D9"/>
</mask>
<g mask="url(#mask0_1511_53)">
<path d="M11 29C10.45 29 9.97917 28.8042 9.5875 28.4125C9.19583 28.0208 9 27.55 9 27V15C9 14.45 9.19583 13.9792 9.5875 13.5875C9.97917 13.1958 10.45 13 11 13H14.15L16 11H22V13H16.875L15.05 15H11V27H27V18H29V27C29 27.55 28.8042 28.0208 28.4125 28.4125C28.0208 28.8042 27.55 29 27 29H11ZM27 15V13H25V11H27V9H29V11H31V13H29V15H27ZM19 25.5C20.25 25.5 21.3125 25.0625 22.1875 24.1875C23.0625 23.3125 23.5 22.25 23.5 21C23.5 19.75 23.0625 18.6875 22.1875 17.8125C21.3125 16.9375 20.25 16.5 19 16.5C17.75 16.5 16.6875 16.9375 15.8125 17.8125C14.9375 18.6875 14.5 19.75 14.5 21C14.5 22.25 14.9375 23.3125 15.8125 24.1875C16.6875 25.0625 17.75 25.5 19 25.5ZM19 23.5C18.3 23.5 17.7083 23.2583 17.225 22.775C16.7417 22.2917 16.5 21.7 16.5 21C16.5 20.3 16.7417 19.7083 17.225 19.225C17.7083 18.7417 18.3 18.5 19 18.5C19.7 18.5 20.2917 18.7417 20.775 19.225C21.2583 19.7083 21.5 20.3 21.5 21C21.5 21.7 21.2583 22.2917 20.775 22.775C20.2917 23.2583 19.7 23.5 19 23.5Z" fill="white"/>
</g>
</svg>
