<svg width="39" height="39" viewBox="0 0 39 39" fill="none" xmlns="http://www.w3.org/2000/svg">
<path d="M16.875 28.125L30.0938 14.9063L27.4688 12.2813L16.875 22.875L11.5312 17.5312L8.90625 20.1563L16.875 28.125ZM19.5 38.25C16.9063 38.25 14.4687 37.7578 12.1875 36.7734C9.90625 35.7891 7.92187 34.4531 6.23437 32.7656C4.54687 31.0781 3.21094 29.0938 2.22656 26.8125C1.24219 24.5313 0.75 22.0937 0.75 19.5C0.75 16.9063 1.24219 14.4687 2.22656 12.1875C3.21094 9.90625 4.54687 7.92187 6.23437 6.23437C7.92187 4.54687 9.90625 3.21094 12.1875 2.22656C14.4687 1.24219 16.9063 0.75 19.5 0.75C22.0937 0.75 24.5313 1.24219 26.8125 2.22656C29.0938 3.21094 31.0781 4.54687 32.7656 6.23437C34.4531 7.92187 35.7891 9.90625 36.7734 12.1875C37.7578 14.4687 38.25 16.9063 38.25 19.5C38.25 22.0937 37.7578 24.5313 36.7734 26.8125C35.7891 29.0938 34.4531 31.0781 32.7656 32.7656C31.0781 34.4531 29.0938 35.7891 26.8125 36.7734C24.5313 37.7578 22.0937 38.25 19.5 38.25ZM19.5 34.5C23.6875 34.5 27.2344 33.0469 30.1406 30.1406C33.0469 27.2344 34.5 23.6875 34.5 19.5C34.5 15.3125 33.0469 11.7656 30.1406 8.85938C27.2344 5.95313 23.6875 4.5 19.5 4.5C15.3125 4.5 11.7656 5.95313 8.85938 8.85938C5.95313 11.7656 4.5 15.3125 4.5 19.5C4.5 23.6875 5.95313 27.2344 8.85938 30.1406C11.7656 33.0469 15.3125 34.5 19.5 34.5Z" fill="#20C073"/>
</svg>
