<svg width="45" height="45" viewBox="0 0 45 45" fill="none" xmlns="http://www.w3.org/2000/svg">
<mask id="mask0_1527_20" style="mask-type:alpha" maskUnits="userSpaceOnUse" x="0" y="0" width="45" height="45">
<rect width="45" height="45" fill="#D9D9D9"/>
</mask>
<g mask="url(#mask0_1527_20)">
<path d="M22.5473 8.39063C25.8598 8.39063 28.9848 9.10156 31.9223 10.5234C34.8598 11.9453 37.3129 14 39.2816 16.6875C39.5004 16.9688 39.5707 17.2188 39.4926 17.4375C39.4145 17.6563 39.2816 17.8438 39.0941 18C38.9066 18.1563 38.6879 18.2266 38.4379 18.2109C38.1879 18.1953 37.9691 18.0625 37.7816 17.8125C36.0629 15.375 33.852 13.5078 31.1488 12.2109C28.4457 10.9141 25.5785 10.2656 22.5473 10.2656C19.516 10.2656 16.6723 10.9141 14.016 12.2109C11.3598 13.5078 9.15664 15.375 7.40664 17.8125C7.21914 18.0937 7.00039 18.25 6.75039 18.2812C6.50039 18.3125 6.28164 18.25 6.09414 18.0938C5.87539 17.9375 5.74258 17.7422 5.6957 17.5078C5.64883 17.2734 5.71914 17.0313 5.90664 16.7813C7.84414 14.125 10.2738 12.0625 13.1957 10.5938C16.1176 9.125 19.2348 8.39063 22.5473 8.39063ZM22.5473 12.7969C26.766 12.7969 30.391 14.2031 33.4223 17.0156C36.4535 19.8281 37.9691 23.3125 37.9691 27.4688C37.9691 29.0312 37.4145 30.3359 36.3051 31.3828C35.1957 32.4297 33.8441 32.9531 32.2504 32.9531C30.6566 32.9531 29.2895 32.4297 28.1488 31.3828C27.0082 30.3359 26.4379 29.0312 26.4379 27.4688C26.4379 26.4375 26.0551 25.5703 25.2895 24.8672C24.5238 24.1641 23.6098 23.8125 22.5473 23.8125C21.4848 23.8125 20.5707 24.1641 19.8051 24.8672C19.0395 25.5703 18.6566 26.4375 18.6566 27.4688C18.6566 30.5 19.5551 33.0313 21.352 35.0625C23.1488 37.0938 25.4691 38.5156 28.3129 39.3281C28.5941 39.4219 28.7816 39.5781 28.8754 39.7969C28.9691 40.0156 28.9848 40.25 28.9223 40.5C28.8598 40.7188 28.7348 40.9062 28.5473 41.0625C28.3598 41.2188 28.1254 41.2656 27.8441 41.2031C24.5941 40.3906 21.9379 38.7734 19.8754 36.3516C17.8129 33.9297 16.7816 30.9688 16.7816 27.4688C16.7816 25.9063 17.3441 24.5938 18.4691 23.5313C19.5941 22.4688 20.9535 21.9375 22.5473 21.9375C24.141 21.9375 25.5004 22.4688 26.6254 23.5313C27.7504 24.5938 28.3129 25.9063 28.3129 27.4688C28.3129 28.5 28.7035 29.3672 29.4848 30.0703C30.266 30.7734 31.1879 31.125 32.2504 31.125C33.3129 31.125 34.2191 30.7734 34.9691 30.0703C35.7191 29.3672 36.0941 28.5 36.0941 27.4688C36.0941 23.8437 34.766 20.7969 32.1098 18.3281C29.4535 15.8594 26.2816 14.625 22.5941 14.625C18.9066 14.625 15.7348 15.8594 13.0785 18.3281C10.4223 20.7969 9.09414 23.8281 9.09414 27.4219C9.09414 28.1719 9.16445 29.1094 9.30508 30.2344C9.4457 31.3594 9.78164 32.6719 10.3129 34.1719C10.4066 34.4531 10.3988 34.7031 10.2895 34.9219C10.1801 35.1406 10.0004 35.2969 9.75039 35.3906C9.50039 35.4844 9.2582 35.4766 9.02383 35.3672C8.78945 35.2578 8.62539 35.0781 8.53164 34.8281C8.06289 33.6094 7.72695 32.3984 7.52383 31.1953C7.3207 29.9922 7.21914 28.75 7.21914 27.4688C7.21914 23.3125 8.72695 19.8281 11.7426 17.0156C14.7582 14.2031 18.3598 12.7969 22.5473 12.7969ZM22.5473 3.79688C24.5473 3.79688 26.5004 4.03906 28.4066 4.52344C30.3129 5.00781 32.1566 5.70312 33.9379 6.60938C34.2191 6.76563 34.3832 6.95313 34.4301 7.17188C34.477 7.39063 34.4535 7.60938 34.3598 7.82813C34.266 8.04688 34.1098 8.21875 33.891 8.34375C33.6723 8.46875 33.4066 8.45313 33.0941 8.29688C31.4379 7.45313 29.727 6.80469 27.9613 6.35156C26.1957 5.89844 24.391 5.67188 22.5473 5.67188C20.7348 5.67188 18.9535 5.88281 17.2035 6.30469C15.4535 6.72656 13.7816 7.39063 12.1879 8.29688C11.9379 8.45313 11.6879 8.49219 11.4379 8.41406C11.1879 8.33594 11.0004 8.17188 10.8754 7.92188C10.7504 7.67188 10.7191 7.44531 10.7816 7.24219C10.8441 7.03906 11.0004 6.85938 11.2504 6.70313C13.0004 5.76563 14.8285 5.04688 16.7348 4.54688C18.641 4.04687 20.5785 3.79688 22.5473 3.79688ZM22.5473 17.3437C25.4535 17.3437 27.9535 18.3203 30.0473 20.2734C32.141 22.2266 33.1879 24.625 33.1879 27.4688C33.1879 27.75 33.102 27.9766 32.9301 28.1484C32.7582 28.3203 32.5316 28.4062 32.2504 28.4062C32.0004 28.4062 31.7816 28.3203 31.5941 28.1484C31.4066 27.9766 31.3129 27.75 31.3129 27.4688C31.3129 25.125 30.4457 23.1641 28.7113 21.5859C26.977 20.0078 24.9223 19.2188 22.5473 19.2188C20.1723 19.2188 18.1332 20.0078 16.4301 21.5859C14.727 23.1641 13.8754 25.125 13.8754 27.4688C13.8754 30 14.3129 32.1484 15.1879 33.9141C16.0629 35.6797 17.3441 37.4531 19.0316 39.2344C19.2191 39.4219 19.3129 39.6406 19.3129 39.8906C19.3129 40.1406 19.2191 40.3594 19.0316 40.5469C18.8441 40.7344 18.6254 40.8281 18.3754 40.8281C18.1254 40.8281 17.9066 40.7344 17.7191 40.5469C15.8754 38.6094 14.4613 36.6328 13.477 34.6172C12.4926 32.6016 12.0004 30.2188 12.0004 27.4688C12.0004 24.625 13.0316 22.2266 15.0941 20.2734C17.1566 18.3203 19.641 17.3437 22.5473 17.3437ZM22.5004 26.5312C22.7816 26.5312 23.0082 26.625 23.1801 26.8125C23.352 27 23.4379 27.2187 23.4379 27.4688C23.4379 29.8125 24.2816 31.7344 25.9691 33.2344C27.6566 34.7344 29.6254 35.4844 31.8754 35.4844C32.0629 35.4844 32.3285 35.4688 32.6723 35.4375C33.016 35.4062 33.3754 35.3594 33.7504 35.2969C34.0316 35.2344 34.2738 35.2734 34.477 35.4141C34.6801 35.5547 34.8129 35.7656 34.8754 36.0469C34.9379 36.2969 34.891 36.5156 34.7348 36.7031C34.5785 36.8906 34.3754 37.0156 34.1254 37.0781C33.5629 37.2344 33.0707 37.3203 32.6488 37.3359C32.227 37.3516 31.9691 37.3594 31.8754 37.3594C29.0941 37.3594 26.6801 36.4219 24.6332 34.5469C22.5863 32.6719 21.5629 30.3125 21.5629 27.4688C21.5629 27.2187 21.6488 27 21.8207 26.8125C21.9926 26.625 22.2191 26.5312 22.5004 26.5312Z" fill="white"/>
</g>
</svg>
