<svg width="42" height="42" viewBox="0 0 42 42" fill="none" xmlns="http://www.w3.org/2000/svg">
<path d="M21.9293 3.00864C21.8073 2.88641 21.6625 2.78944 21.503 2.72327C21.3436 2.65711 21.1726 2.62305 21 2.62305C20.8274 2.62305 20.6564 2.65711 20.497 2.72327C20.3375 2.78944 20.1927 2.88641 20.0708 3.00864L4.32075 18.7586C4.19895 18.8808 4.1024 19.0257 4.03664 19.1851C3.97088 19.3446 3.93719 19.5154 3.9375 19.6879V38.0629C3.9375 38.411 4.07578 38.7448 4.32192 38.991C4.56807 39.2371 4.90191 39.3754 5.25 39.3754H17.0625C17.4106 39.3754 17.7444 39.2371 17.9906 38.991C18.2367 38.7448 18.375 38.411 18.375 38.0629V27.5629H23.625V38.0629C23.625 38.411 23.7633 38.7448 24.0094 38.991C24.2556 39.2371 24.5894 39.3754 24.9375 39.3754H36.75C37.0981 39.3754 37.4319 39.2371 37.6781 38.991C37.9242 38.7448 38.0625 38.411 38.0625 38.0629V19.6879C38.0628 19.5154 38.0291 19.3446 37.9634 19.1851C37.8976 19.0257 37.8011 18.8808 37.6793 18.7586L34.125 15.207V6.56289C34.125 6.2148 33.9867 5.88096 33.7406 5.63482C33.4944 5.38867 33.1606 5.25039 32.8125 5.25039H30.1875C29.8394 5.25039 29.5056 5.38867 29.2594 5.63482C29.0133 5.88096 28.875 6.2148 28.875 6.56289V9.95702L21.9293 3.00864ZM6.5625 36.7504V20.2313L21 5.79377L35.4375 20.2313V36.7504H26.25V26.2504C26.25 25.9023 26.1117 25.5685 25.8656 25.3223C25.6194 25.0762 25.2856 24.9379 24.9375 24.9379H17.0625C16.7144 24.9379 16.3806 25.0762 16.1344 25.3223C15.8883 25.5685 15.75 25.9023 15.75 26.2504V36.7504H6.5625Z" fill="white"/>
</svg>
