<svg width="42" height="40" viewBox="0 0 42 40" fill="none" xmlns="http://www.w3.org/2000/svg">
<mask id="mask0_1368_13" style="mask-type:alpha" maskUnits="userSpaceOnUse" x="0" y="0" width="42" height="40">
<rect y="0.9375" width="41.6667" height="39.0625" fill="#D9D9D9"/>
</mask>
<g mask="url(#mask0_1368_13)">
<path d="M23.4389 36.7445C20.3139 36.7445 17.6519 35.7136 15.4528 33.652C13.2537 31.5904 12.1542 29.0947 12.1542 26.165V25.2292C9.66576 24.8494 7.5969 23.7575 5.94759 21.9536C4.29829 20.1497 3.47363 18.027 3.47363 15.5856V5.81999H8.68197V4.19238H12.1542V10.7028H8.68197V9.07519H6.94586V15.5856C6.94586 17.376 7.62583 18.9086 8.98579 20.1836C10.3457 21.4585 11.9806 22.096 13.8903 22.096C15.8 22.096 17.4349 21.4585 18.7948 20.1836C20.1548 18.9086 20.8347 17.376 20.8347 15.5856V9.07519H19.0986V10.7028H15.6264V4.19238H19.0986V5.81999H24.307V15.5856C24.307 18.027 23.4823 20.1497 21.833 21.9536C20.1837 23.7575 18.1148 24.8494 15.6264 25.2292V26.165C15.6264 28.1995 16.386 29.9289 17.9051 31.353C19.4242 32.7772 21.2688 33.4893 23.4389 33.4893C25.6091 33.4893 27.4537 32.7772 28.9728 31.353C30.4919 29.9289 31.2514 28.1995 31.2514 26.165V23.4388C30.2387 23.1133 29.4068 22.5301 28.7558 21.6891C28.1047 20.8482 27.7792 19.8988 27.7792 18.8408C27.7792 17.4845 28.2856 16.3316 29.2983 15.3822C30.311 14.4327 31.5408 13.958 32.9875 13.958C34.4343 13.958 35.664 14.4327 36.6768 15.3822C37.6895 16.3316 38.1959 17.4845 38.1959 18.8408C38.1959 19.8988 37.8703 20.8482 37.2193 21.6891C36.5683 22.5301 35.7364 23.1133 34.7236 23.4388V26.165C34.7236 29.0947 33.6241 31.5904 31.425 33.652C29.226 35.7136 26.5639 36.7445 23.4389 36.7445ZM32.9875 20.4684C33.4794 20.4684 33.8917 20.3124 34.2245 20.0005C34.5573 19.6885 34.7236 19.302 34.7236 18.8408C34.7236 18.3797 34.5573 17.9931 34.2245 17.6812C33.8917 17.3692 33.4794 17.2132 32.9875 17.2132C32.4956 17.2132 32.0833 17.3692 31.7505 17.6812C31.4178 17.9931 31.2514 18.3797 31.2514 18.8408C31.2514 19.302 31.4178 19.6885 31.7505 20.0005C32.0833 20.3124 32.4956 20.4684 32.9875 20.4684Z" fill="white"/>
</g>
</svg>
