<svg width="45" height="45" viewBox="0 0 45 45" fill="none" xmlns="http://www.w3.org/2000/svg">
<mask id="mask0_1776_13" style="mask-type:alpha" maskUnits="userSpaceOnUse" x="0" y="0" width="45" height="45">
<rect width="45" height="45" transform="matrix(-1 0 0 1 45 0)" fill="#D9D9D9"/>
</mask>
<g mask="url(#mask0_1776_13)">
<path d="M6.49999 42.5635L16.9062 32.1572C19.6875 34.4072 22.7109 36.1729 25.9766 37.4541C29.2422 38.7354 32.5937 39.376 36.0312 39.376C36.7812 39.376 37.2969 39.1885 37.5781 38.8135C37.8594 38.4385 38 37.9697 38 37.4072V29.8135C38 29.376 37.8594 28.9932 37.5781 28.665C37.2969 28.3369 36.9375 28.126 36.5 28.0322L30.0312 26.7197C29.6875 26.6572 29.2578 26.7041 28.7422 26.8604C28.2266 27.0166 27.8437 27.2197 27.5937 27.4697L23.1875 31.876C22.625 31.5322 22.0156 31.1416 21.3594 30.7041C20.7031 30.2666 20.125 29.8447 19.625 29.4385L41 8.06348L38.375 5.43848L3.875 39.9385L6.49999 42.5635ZM26.75 33.5635L29.8437 30.4697L34.25 31.4072V35.5322C32.9687 35.4385 31.7031 35.2197 30.4531 34.876C29.2031 34.5322 27.9687 34.0947 26.75 33.5635ZM11.6562 26.8135L14.2812 24.1885C13.8125 23.6572 13.3359 23.0479 12.8516 22.3604C12.3672 21.6729 11.9844 21.0322 11.7031 20.4385L16.25 15.8447C16.5 15.5947 16.6719 15.2432 16.7656 14.79C16.8594 14.3369 16.875 13.9697 16.8125 13.6885L15.5937 7.12598C15.5 6.68848 15.2891 6.3291 14.9609 6.04785C14.6328 5.7666 14.25 5.62598 13.8125 5.62598H6.21875C5.65625 5.62598 5.1875 5.81348 4.8125 6.18848C4.4375 6.56348 4.24999 7.03223 4.24999 7.59473C4.24999 11.0322 4.90625 14.3838 6.21875 17.6494C7.53125 20.915 9.34374 23.9697 11.6562 26.8135ZM9.96875 16.876C9.4375 15.6572 9.03125 14.4229 8.75 13.1729C8.46875 11.9229 8.25 10.6572 8.09375 9.37598H12.2187L13.0625 13.7822L9.96875 16.876Z" fill="white"/>
</g>
</svg>
