<svg width="46" height="46" viewBox="0 0 46 46" fill="none" xmlns="http://www.w3.org/2000/svg">
<mask id="mask0_1934_13" style="mask-type:alpha" maskUnits="userSpaceOnUse" x="0" y="0" width="46" height="46">
<rect x="0.424805" y="0.962891" width="45" height="45" fill="#D9D9D9"/>
</mask>
<g mask="url(#mask0_1934_13)">
<path d="M9.7998 40.3379C8.76855 40.3379 7.88574 39.9707 7.15137 39.2363C6.41699 38.502 6.0498 37.6191 6.0498 36.5879V10.3379C6.0498 9.30664 6.41699 8.42383 7.15137 7.68945C7.88574 6.95508 8.76855 6.58789 9.7998 6.58789H36.0498C37.0811 6.58789 37.9639 6.95508 38.6982 7.68945C39.4326 8.42383 39.7998 9.30664 39.7998 10.3379V36.5879C39.7998 37.6191 39.4326 38.502 38.6982 39.2363C37.9639 39.9707 37.0811 40.3379 36.0498 40.3379H9.7998ZM11.6748 24.541L19.1748 17.041L26.6748 24.541L34.1748 17.041L36.0498 18.916V10.3379H9.7998V22.666L11.6748 24.541ZM9.7998 36.5879H36.0498V24.2129L34.1748 22.3379L26.6748 29.8379L19.1748 22.3379L11.6748 29.8379L9.7998 27.9629V36.5879ZM9.7998 36.5879V24.2129V27.9629V10.3379V36.5879Z" fill="#9B96A9"/>
</g>
</svg>
