<svg width="45" height="45" viewBox="0 0 45 45" fill="none" xmlns="http://www.w3.org/2000/svg">
<path d="M21.0938 2.8125V22.5H23.9062V2.8125H21.0938Z" fill="white"/>
<path d="M8.43754 24.7833C8.43715 22.2717 9.10943 19.8059 10.3845 17.642C11.6596 15.4781 13.4909 13.6952 15.6882 12.4786L14.3241 10.0205C11.0631 11.8263 8.49175 14.6611 7.01153 18.0822C5.53131 21.5033 5.22551 25.3183 6.14187 28.9315C7.05824 32.5448 9.14518 35.7529 12.0769 38.0551C15.0086 40.3573 18.6202 41.624 22.3476 41.6575C26.0751 41.6909 29.7088 40.4892 32.6813 38.24C35.6539 35.9908 37.7981 32.8206 38.7791 29.2244C39.7602 25.6282 39.5229 21.8083 38.1043 18.3612C36.6857 14.914 34.1656 12.0336 30.9375 10.1696L29.5285 12.6024C31.6666 13.8362 33.4423 15.6111 34.6771 17.7487C35.9118 19.8863 36.5621 22.3113 36.5625 24.7798C36.563 27.2484 35.9136 29.6736 34.6797 31.8117C33.4458 33.9498 31.6707 35.7253 29.5331 36.96C27.3954 38.1946 24.9704 38.8447 22.5018 38.845C20.0332 38.8453 17.608 38.1958 15.47 36.9617C13.332 35.7276 11.5566 33.9525 10.3221 31.8147C9.08766 29.677 8.43768 27.2519 8.43754 24.7833Z" fill="white"/>
</svg>
