<svg width="52" height="48" viewBox="0 0 52 48" fill="none" xmlns="http://www.w3.org/2000/svg">
<mask id="mask0_1259_375" style="mask-type:alpha" maskUnits="userSpaceOnUse" x="0" y="0" width="52" height="48">
<rect width="52" height="48" fill="#D9D9D9"/>
</mask>
<g mask="url(#mask0_1259_375)">
<path d="M12.9997 28H30.333V24H12.9997V28ZM12.9997 22H38.9997V18H12.9997V22ZM12.9997 16H38.9997V12H12.9997V16ZM4.33301 44V8C4.33301 6.9 4.75731 5.95833 5.60592 5.175C6.45454 4.39167 7.47467 4 8.66634 4H43.333C44.5247 4 45.5448 4.39167 46.3934 5.175C47.242 5.95833 47.6663 6.9 47.6663 8V32C47.6663 33.1 47.242 34.0417 46.3934 34.825C45.5448 35.6083 44.5247 36 43.333 36H12.9997L4.33301 44ZM11.158 32H43.333V8H8.66634V34.25L11.158 32Z" fill="white"/>
</g>
</svg>
