<svg width="42" height="32" viewBox="0 0 42 32" fill="none" xmlns="http://www.w3.org/2000/svg">
<path d="M39.375 31.75C39.375 31.75 42 31.75 42 29.125C42 26.5 39.375 18.625 28.875 18.625C18.375 18.625 15.75 26.5 15.75 29.125C15.75 31.75 18.375 31.75 18.375 31.75H39.375ZM18.4327 29.125L18.375 29.1145C18.3776 28.4215 18.8134 26.4108 20.37 24.5995C21.819 22.9011 24.3652 21.25 28.875 21.25C33.3821 21.25 35.9284 22.9038 37.38 24.5995C38.9366 26.4108 39.3697 28.4241 39.375 29.1145L39.354 29.1198L39.3172 29.125H18.4327ZM28.875 13.375C30.2674 13.375 31.6027 12.8219 32.5873 11.8373C33.5719 10.8527 34.125 9.51739 34.125 8.125C34.125 6.73261 33.5719 5.39726 32.5873 4.41269C31.6027 3.42812 30.2674 2.875 28.875 2.875C27.4826 2.875 26.1473 3.42812 25.1627 4.41269C24.1781 5.39726 23.625 6.73261 23.625 8.125C23.625 9.51739 24.1781 10.8527 25.1627 11.8373C26.1473 12.8219 27.4826 13.375 28.875 13.375ZM36.75 8.125C36.75 9.15916 36.5463 10.1832 36.1506 11.1386C35.7548 12.0941 35.1747 12.9622 34.4435 13.6935C33.7122 14.4247 32.8441 15.0048 31.8886 15.4006C30.9332 15.7963 29.9092 16 28.875 16C27.8408 16 26.8168 15.7963 25.8614 15.4006C24.9059 15.0048 24.0378 14.4247 23.3065 13.6935C22.5753 12.9622 21.9952 12.0941 21.5994 11.1386C21.2037 10.1832 21 9.15916 21 8.125C21 6.03642 21.8297 4.03338 23.3065 2.55653C24.7834 1.07969 26.7864 0.25 28.875 0.25C30.9636 0.25 32.9666 1.07969 34.4435 2.55653C35.9203 4.03338 36.75 6.03642 36.75 8.125ZM18.207 19.36C17.1564 19.0316 16.0742 18.8143 14.9782 18.7116C14.3624 18.6516 13.7438 18.6227 13.125 18.625C2.625 18.625 0 26.5 0 29.125C0 30.875 0.875 31.75 2.625 31.75H13.692C13.303 30.9305 13.109 30.032 13.125 29.125C13.125 26.4738 14.1146 23.7647 15.9862 21.502C16.6241 20.7302 17.367 20.0084 18.207 19.36ZM12.915 21.25C11.3624 23.5848 10.5232 26.3212 10.5 29.125H2.625C2.625 28.4425 3.0555 26.4213 4.62 24.5995C6.05062 22.93 8.5365 21.3025 12.915 21.2526V21.25ZM3.9375 9.4375C3.9375 7.34892 4.76719 5.34588 6.24403 3.86903C7.72088 2.39219 9.72392 1.5625 11.8125 1.5625C13.9011 1.5625 15.9041 2.39219 17.381 3.86903C18.8578 5.34588 19.6875 7.34892 19.6875 9.4375C19.6875 11.5261 18.8578 13.5291 17.381 15.006C15.9041 16.4828 13.9011 17.3125 11.8125 17.3125C9.72392 17.3125 7.72088 16.4828 6.24403 15.006C4.76719 13.5291 3.9375 11.5261 3.9375 9.4375ZM11.8125 4.1875C10.4201 4.1875 9.08476 4.74062 8.10019 5.72519C7.11562 6.70976 6.5625 8.04511 6.5625 9.4375C6.5625 10.8299 7.11562 12.1652 8.10019 13.1498C9.08476 14.1344 10.4201 14.6875 11.8125 14.6875C13.2049 14.6875 14.5402 14.1344 15.5248 13.1498C16.5094 12.1652 17.0625 10.8299 17.0625 9.4375C17.0625 8.04511 16.5094 6.70976 15.5248 5.72519C14.5402 4.74062 13.2049 4.1875 11.8125 4.1875Z" fill="white"/>
</svg>
