<svg width="45" height="45" viewBox="0 0 45 45" fill="none" xmlns="http://www.w3.org/2000/svg">
<mask id="mask0_1524_13" style="mask-type:alpha" maskUnits="userSpaceOnUse" x="0" y="0" width="45" height="45">
<rect width="45" height="45" fill="#D9D9D9"/>
</mask>
<g mask="url(#mask0_1524_13)">
<path d="M13.125 26.25H20.0156C20.3594 25.5313 20.7578 24.8594 21.2109 24.2344C21.6641 23.6094 22.1719 23.0312 22.7344 22.5H13.125V26.25ZM13.125 33.75H18.8906C18.7969 33.125 18.75 32.5 18.75 31.875C18.75 31.25 18.7969 30.625 18.8906 30H13.125V33.75ZM9.375 41.25C8.34375 41.25 7.46094 40.8828 6.72656 40.1484C5.99219 39.4141 5.625 38.5313 5.625 37.5V7.5C5.625 6.46875 5.99219 5.58594 6.72656 4.85156C7.46094 4.11719 8.34375 3.75 9.375 3.75H24.375L35.625 15V19.3125C35.0312 19.125 34.4219 18.9844 33.7969 18.8906C33.1719 18.7969 32.5312 18.75 31.875 18.75V16.875H22.5V7.5H9.375V37.5H20.0156C20.3594 38.2187 20.7578 38.8906 21.2109 39.5156C21.6641 40.1406 22.1719 40.7188 22.7344 41.25H9.375ZM31.875 22.5C34.4687 22.5 36.6797 23.4141 38.5078 25.2422C40.3359 27.0703 41.25 29.2813 41.25 31.875C41.25 34.4687 40.3359 36.6797 38.5078 38.5078C36.6797 40.3359 34.4687 41.25 31.875 41.25C29.2813 41.25 27.0703 40.3359 25.2422 38.5078C23.4141 36.6797 22.5 34.4687 22.5 31.875C22.5 29.2813 23.4141 27.0703 25.2422 25.2422C27.0703 23.4141 29.2813 22.5 31.875 22.5ZM31.875 37.5C32.2188 37.5 32.5078 37.3828 32.7422 37.1484C32.9766 36.9141 33.0938 36.625 33.0938 36.2813C33.0938 35.9375 32.9766 35.6484 32.7422 35.4141C32.5078 35.1797 32.2188 35.0625 31.875 35.0625C31.5312 35.0625 31.2422 35.1797 31.0078 35.4141C30.7734 35.6484 30.6563 35.9375 30.6563 36.2813C30.6563 36.625 30.7734 36.9141 31.0078 37.1484C31.2422 37.3828 31.5312 37.5 31.875 37.5ZM31.0313 33.9375H32.7187V33.4688C32.7187 33.125 32.8125 32.8203 33 32.5547C33.1875 32.2891 33.4062 32.0312 33.6562 31.7812C34.0937 31.4062 34.4375 31.0469 34.6875 30.7031C34.9375 30.3594 35.0625 29.875 35.0625 29.25C35.0625 28.3438 34.7656 27.6172 34.1719 27.0703C33.5781 26.5234 32.8125 26.25 31.875 26.25C31.1563 26.25 30.5078 26.4609 29.9297 26.8828C29.3516 27.3047 28.9375 27.875 28.6875 28.5938L30.1875 29.25C30.2813 28.875 30.4766 28.5469 30.7734 28.2656C31.0703 27.9844 31.4375 27.8438 31.875 27.8438C32.3438 27.8438 32.7109 27.9609 32.9766 28.1953C33.2422 28.4297 33.375 28.7813 33.375 29.25C33.375 29.5938 33.2813 29.8828 33.0938 30.1172C32.9063 30.3516 32.6875 30.5937 32.4375 30.8437C32.25 31.0312 32.0547 31.2187 31.8516 31.4062C31.6484 31.5938 31.4687 31.8125 31.3125 32.0625C31.2187 32.25 31.1484 32.4375 31.1016 32.625C31.0547 32.8125 31.0313 33.0312 31.0313 33.2812V33.9375Z" fill="white"/>
</g>
</svg>
