<svg width="45" height="45" viewBox="0 0 45 45" fill="none" xmlns="http://www.w3.org/2000/svg">
<mask id="mask0_1368_24" style="mask-type:alpha" maskUnits="userSpaceOnUse" x="0" y="0" width="45" height="45">
<rect width="45" height="45" fill="#D9D9D9"/>
</mask>
<g mask="url(#mask0_1368_24)">
<path d="M22.501 31.876C23.0322 31.876 23.4775 31.6963 23.8369 31.3369C24.1963 30.9775 24.376 30.5322 24.376 30.001C24.376 29.4697 24.1963 29.0244 23.8369 28.665C23.4775 28.3057 23.0322 28.126 22.501 28.126C21.9697 28.126 21.5244 28.3057 21.165 28.665C20.8057 29.0244 20.626 29.4697 20.626 30.001C20.626 30.5322 20.8057 30.9775 21.165 31.3369C21.5244 31.6963 21.9697 31.876 22.501 31.876ZM20.626 24.376H24.376V13.126H20.626V24.376ZM22.501 43.6885L16.2197 37.501H7.50098V28.7822L1.31348 22.501L7.50098 16.2197V7.50098H16.2197L22.501 1.31348L28.7822 7.50098H37.501V16.2197L43.6885 22.501L37.501 28.7822V37.501H28.7822L22.501 43.6885ZM22.501 38.4385L27.1885 33.751H33.751V27.1885L38.4385 22.501L33.751 17.8135V11.251H27.1885L22.501 6.56348L17.8135 11.251H11.251V17.8135L6.56348 22.501L11.251 27.1885V33.751H17.8135L22.501 38.4385Z" fill="white"/>
</g>
</svg>
