<svg width="33" height="33" viewBox="0 0 33 33" fill="none" xmlns="http://www.w3.org/2000/svg">
<mask id="mask0_1368_24" style="mask-type:alpha" maskUnits="userSpaceOnUse" x="0" y="0" width="33" height="33">
<rect width="33" height="33" fill="#D9D9D9"/>
</mask>
<g mask="url(#mask0_1368_24)">
<path d="M16.5004 23.3754C16.89 23.3754 17.2165 23.2436 17.4801 22.9801C17.7436 22.7165 17.8754 22.39 17.8754 22.0004C17.8754 21.6108 17.7436 21.2842 17.4801 21.0207C17.2165 20.7572 16.89 20.6254 16.5004 20.6254C16.1108 20.6254 15.7842 20.7572 15.5207 21.0207C15.2572 21.2842 15.1254 21.6108 15.1254 22.0004C15.1254 22.39 15.2572 22.7165 15.5207 22.9801C15.7842 23.2436 16.1108 23.3754 16.5004 23.3754ZM15.1254 17.8754H17.8754V9.62539H15.1254V17.8754ZM16.5004 32.0379L11.8941 27.5004H5.50039V21.1066L0.962891 16.5004L5.50039 11.8941V5.50039H11.8941L16.5004 0.962891L21.1066 5.50039H27.5004V11.8941L32.0379 16.5004L27.5004 21.1066V27.5004H21.1066L16.5004 32.0379ZM16.5004 28.1879L19.9379 24.7504H24.7504V19.9379L28.1879 16.5004L24.7504 13.0629V8.25039H19.9379L16.5004 4.81289L13.0629 8.25039H8.25039V13.0629L4.81289 16.5004L8.25039 19.9379V24.7504H13.0629L16.5004 28.1879Z" fill="white"/>
</g>
</svg>
