<svg width="42" height="42" viewBox="0 0 42 42" fill="none" xmlns="http://www.w3.org/2000/svg">
<path d="M19.6875 14.4375C19.6875 14.0894 19.5492 13.7556 19.3031 13.5094C19.0569 13.2633 18.7231 13.125 18.375 13.125C18.0269 13.125 17.6931 13.2633 17.4469 13.5094C17.2008 13.7556 17.0625 14.0894 17.0625 14.4375V16.1017L15.6214 15.2696C15.4721 15.1821 15.3069 15.1249 15.1354 15.1015C14.9639 15.078 14.7895 15.0888 14.6221 15.133C14.4548 15.1772 14.2978 15.2541 14.1603 15.3593C14.0228 15.4644 13.9075 15.5957 13.8209 15.7456C13.7344 15.8955 13.6783 16.0611 13.656 16.2327C13.6337 16.4044 13.6456 16.5787 13.6909 16.7458C13.7363 16.9128 13.8142 17.0693 13.9203 17.2061C14.0263 17.3429 14.1584 17.4573 14.3089 17.5429L15.75 18.375L14.3089 19.2071C14.1584 19.2927 14.0263 19.4071 13.9203 19.5439C13.8142 19.6807 13.7363 19.8372 13.6909 20.0042C13.6456 20.1713 13.6337 20.3456 13.656 20.5173C13.6783 20.6889 13.7344 20.8545 13.8209 21.0044C13.9075 21.1543 14.0228 21.2856 14.1603 21.3907C14.2978 21.4959 14.4548 21.5728 14.6221 21.617C14.7895 21.6612 14.9639 21.672 15.1354 21.6485C15.3069 21.6251 15.4721 21.5679 15.6214 21.4804L17.0625 20.6483V22.3125C17.0625 22.6606 17.2008 22.9944 17.4469 23.2406C17.6931 23.4867 18.0269 23.625 18.375 23.625C18.7231 23.625 19.0569 23.4867 19.3031 23.2406C19.5492 22.9944 19.6875 22.6606 19.6875 22.3125V20.6483L21.1286 21.4804C21.2779 21.5679 21.4431 21.6251 21.6146 21.6485C21.7861 21.672 21.9605 21.6612 22.1279 21.617C22.2952 21.5728 22.4522 21.4959 22.5897 21.3907C22.7272 21.2856 22.8425 21.1543 22.9291 21.0044C23.0156 20.8545 23.0717 20.6889 23.094 20.5173C23.1163 20.3456 23.1044 20.1713 23.0591 20.0042C23.0137 19.8372 22.9358 19.6807 22.8297 19.5439C22.7237 19.4071 22.5916 19.2927 22.4411 19.2071L21 18.375L22.4411 17.5429C22.5916 17.4573 22.7237 17.3429 22.8297 17.2061C22.9358 17.0693 23.0137 16.9128 23.0591 16.7458C23.1044 16.5787 23.1163 16.4044 23.094 16.2327C23.0717 16.0611 23.0156 15.8955 22.9291 15.7456C22.8425 15.5957 22.7272 15.4644 22.5897 15.3593C22.4522 15.2541 22.2952 15.1772 22.1279 15.133C21.9605 15.0888 21.7861 15.078 21.6146 15.1015C21.4431 15.1249 21.2779 15.1821 21.1286 15.2696L19.6875 16.1017V14.4375ZM14.4375 26.25C14.0894 26.25 13.7556 26.3883 13.5094 26.6344C13.2633 26.8806 13.125 27.2144 13.125 27.5625C13.125 27.9106 13.2633 28.2444 13.5094 28.4906C13.7556 28.7367 14.0894 28.875 14.4375 28.875H27.5625C27.9106 28.875 28.2444 28.7367 28.4906 28.4906C28.7367 28.2444 28.875 27.9106 28.875 27.5625C28.875 27.2144 28.7367 26.8806 28.4906 26.6344C28.2444 26.3883 27.9106 26.25 27.5625 26.25H14.4375ZM14.4375 31.5C14.0894 31.5 13.7556 31.6383 13.5094 31.8844C13.2633 32.1306 13.125 32.4644 13.125 32.8125C13.125 33.1606 13.2633 33.4944 13.5094 33.7406C13.7556 33.9867 14.0894 34.125 14.4375 34.125H27.5625C27.9106 34.125 28.2444 33.9867 28.4906 33.7406C28.7367 33.4944 28.875 33.1606 28.875 32.8125C28.875 32.4644 28.7367 32.1306 28.4906 31.8844C28.2444 31.6383 27.9106 31.5 27.5625 31.5H14.4375Z" fill="white"/>
<path d="M36.75 36.75V11.8125L24.9375 0H10.5C9.10761 0 7.77226 0.553124 6.78769 1.53769C5.80312 2.52226 5.25 3.85761 5.25 5.25V36.75C5.25 38.1424 5.80312 39.4777 6.78769 40.4623C7.77226 41.4469 9.10761 42 10.5 42H31.5C32.8924 42 34.2277 41.4469 35.2123 40.4623C36.1969 39.4777 36.75 38.1424 36.75 36.75ZM24.9375 7.875C24.9375 8.91929 25.3523 9.92081 26.0908 10.6592C26.8292 11.3977 27.8307 11.8125 28.875 11.8125H34.125V36.75C34.125 37.4462 33.8484 38.1139 33.3562 38.6062C32.8639 39.0984 32.1962 39.375 31.5 39.375H10.5C9.80381 39.375 9.13613 39.0984 8.64385 38.6062C8.15156 38.1139 7.875 37.4462 7.875 36.75V5.25C7.875 4.55381 8.15156 3.88613 8.64385 3.39384C9.13613 2.90156 9.80381 2.625 10.5 2.625H24.9375V7.875Z" fill="white"/>
</svg>
