<svg width="34" height="34" viewBox="0 0 34 34" fill="none" xmlns="http://www.w3.org/2000/svg">
<mask id="mask0_1252_858" style="mask-type:alpha" maskUnits="userSpaceOnUse" x="0" y="0" width="34" height="34">
<rect width="34" height="34" fill="#D9D9D9"/>
</mask>
<g mask="url(#mask0_1252_858)">
<path d="M15.5833 14.1663C16.3625 14.1663 17.0295 13.8889 17.5844 13.334C18.1392 12.7792 18.4167 12.1122 18.4167 11.333C18.4167 10.5538 18.1392 9.88683 17.5844 9.33197C17.0295 8.7771 16.3625 8.49967 15.5833 8.49967C14.8042 8.49967 14.1372 8.7771 13.5823 9.33197C13.0274 9.88683 12.75 10.5538 12.75 11.333C12.75 12.1122 13.0274 12.7792 13.5823 13.334C14.1372 13.8889 14.8042 14.1663 15.5833 14.1663ZM15.5833 19.833C16.6458 19.833 17.6434 19.6087 18.576 19.1601C19.5087 18.7115 20.3174 18.074 21.0021 17.2476C20.1757 16.7045 19.308 16.2913 18.399 16.008C17.4899 15.7247 16.5514 15.583 15.5833 15.583C14.6153 15.583 13.6767 15.7247 12.7677 16.008C11.8587 16.2913 10.991 16.7045 10.1646 17.2476C10.8493 18.074 11.658 18.7115 12.5906 19.1601C13.5233 19.6087 14.5208 19.833 15.5833 19.833ZM29.1833 29.7497L22.525 23.0913C21.5569 23.8469 20.4885 24.4372 19.3198 24.8622C18.151 25.2872 16.9056 25.4997 15.5833 25.4997C12.4194 25.4997 9.73958 24.4018 7.54375 22.2059C5.34792 20.0101 4.25 17.3302 4.25 14.1663C4.25 11.0025 5.34792 8.32259 7.54375 6.12676C9.73958 3.93092 12.4194 2.83301 15.5833 2.83301C18.7472 2.83301 21.4271 3.93092 23.6229 6.12676C25.8188 8.32259 26.9167 11.0025 26.9167 14.1663C26.9167 15.4886 26.7042 16.734 26.2792 17.9028C25.8542 19.0715 25.2639 20.14 24.5083 21.108L31.1667 27.7663L29.1833 29.7497ZM15.5833 22.6663C17.9444 22.6663 19.9514 21.84 21.6042 20.1872C23.2569 18.5344 24.0833 16.5275 24.0833 14.1663C24.0833 11.8052 23.2569 9.79829 21.6042 8.14551C19.9514 6.49273 17.9444 5.66634 15.5833 5.66634C13.2222 5.66634 11.2153 6.49273 9.5625 8.14551C7.90972 9.79829 7.08333 11.8052 7.08333 14.1663C7.08333 16.5275 7.90972 18.5344 9.5625 20.1872C11.2153 21.84 13.2222 22.6663 15.5833 22.6663Z" fill="#ADADAD"/>
</g>
</svg>
