<svg width="46" height="46" viewBox="0 0 46 46" fill="none" xmlns="http://www.w3.org/2000/svg">
<mask id="mask0_1654_19" style="mask-type:alpha" maskUnits="userSpaceOnUse" x="0" y="0" width="46" height="46">
<rect x="0.980469" y="0.364258" width="45" height="45" fill="#D9D9D9"/>
</mask>
<g mask="url(#mask0_1654_19)">
<path d="M8.94922 34.6768C7.76172 33.2705 6.80859 31.7236 6.08984 30.0361C5.37109 28.3486 4.91797 26.583 4.73047 24.7393H8.57422C8.76172 26.083 9.10547 27.3721 9.60547 28.6064C10.1055 29.8408 10.7617 30.9893 11.5742 32.0518L8.94922 34.6768ZM4.73047 20.9893C4.98047 19.1455 5.44922 17.3799 6.13672 15.6924C6.82422 14.0049 7.76172 12.458 8.94922 11.0518L11.5742 13.6768C10.7617 14.7393 10.1055 15.8877 9.60547 17.1221C9.10547 18.3564 8.76172 19.6455 8.57422 20.9893H4.73047ZM21.5117 41.5205C19.668 41.333 17.9102 40.8877 16.2383 40.1846C14.5664 39.4814 13.0117 38.5518 11.5742 37.3955L14.1992 34.6768C15.293 35.4893 16.4492 36.1611 17.668 36.6924C18.8867 37.2236 20.168 37.583 21.5117 37.7705V41.5205ZM14.293 11.0518L11.5742 8.33301C13.043 7.17676 14.6211 6.24707 16.3086 5.54395C17.9961 4.84082 19.7617 4.39551 21.6055 4.20801V7.95801C20.2617 8.14551 18.9727 8.50488 17.7383 9.03613C16.5039 9.56738 15.3555 10.2393 14.293 11.0518ZM25.2617 41.5205V37.7705C26.6367 37.583 27.9414 37.2314 29.1758 36.7158C30.4102 36.2002 31.5742 35.5205 32.668 34.6768L35.3867 37.3955C33.918 38.583 32.332 39.5205 30.6289 40.208C28.9258 40.8955 27.1367 41.333 25.2617 41.5205ZM32.7617 11.0518C31.668 10.2393 30.4961 9.56738 29.2461 9.03613C27.9961 8.50488 26.6992 8.14551 25.3555 7.95801V4.20801C27.1992 4.39551 28.9727 4.84082 30.6758 5.54395C32.3789 6.24707 33.9492 7.17676 35.3867 8.33301L32.7617 11.0518ZM38.0117 34.6768L35.3867 32.0518C36.1992 30.9893 36.8555 29.8408 37.3555 28.6064C37.8555 27.3721 38.1992 26.083 38.3867 24.7393H42.2305C41.9805 26.583 41.5117 28.3486 40.8242 30.0361C40.1367 31.7236 39.1992 33.2705 38.0117 34.6768ZM38.3867 20.9893C38.1992 19.6455 37.8555 18.3564 37.3555 17.1221C36.8555 15.8877 36.1992 14.7393 35.3867 13.6768L38.0117 11.0518C39.1992 12.458 40.1523 14.0049 40.8711 15.6924C41.5898 17.3799 42.043 19.1455 42.2305 20.9893H38.3867ZM21.6523 32.2393V20.6611L16.7773 25.5361L14.1523 22.8643L23.5273 13.4893L32.9023 22.8643L30.2305 25.4893L25.4023 20.6611V32.2393H21.6523Z" fill="#1C1B1F"/>
</g>
</svg>
