<svg width="42" height="42" viewBox="0 0 42 42" fill="none" xmlns="http://www.w3.org/2000/svg">
<mask id="mask0_1405_13" style="mask-type:alpha" maskUnits="userSpaceOnUse" x="0" y="0" width="42" height="42">
<rect width="42" height="42" fill="#D9D9D9"/>
</mask>
<g mask="url(#mask0_1405_13)">
<path d="M21 28C23.1875 28 25.0469 27.2344 26.5781 25.7031C28.1094 24.1719 28.875 22.3125 28.875 20.125C28.875 17.9375 28.1094 16.0781 26.5781 14.5469C25.0469 13.0156 23.1875 12.25 21 12.25C18.8125 12.25 16.9531 13.0156 15.4219 14.5469C13.8906 16.0781 13.125 17.9375 13.125 20.125C13.125 22.3125 13.8906 24.1719 15.4219 25.7031C16.9531 27.2344 18.8125 28 21 28ZM21 24.85C19.6875 24.85 18.5719 24.3906 17.6531 23.4719C16.7344 22.5531 16.275 21.4375 16.275 20.125C16.275 18.8125 16.7344 17.6969 17.6531 16.7781C18.5719 15.8594 19.6875 15.4 21 15.4C22.3125 15.4 23.4281 15.8594 24.3469 16.7781C25.2656 17.6969 25.725 18.8125 25.725 20.125C25.725 21.4375 25.2656 22.5531 24.3469 23.4719C23.4281 24.3906 22.3125 24.85 21 24.85ZM21 33.25C16.7417 33.25 12.8625 32.0615 9.3625 29.6844C5.8625 27.3073 3.325 24.1208 1.75 20.125C3.325 16.1292 5.8625 12.9427 9.3625 10.5656C12.8625 8.18854 16.7417 7 21 7C25.2583 7 29.1375 8.18854 32.6375 10.5656C36.1375 12.9427 38.675 16.1292 40.25 20.125C38.675 24.1208 36.1375 27.3073 32.6375 29.6844C29.1375 32.0615 25.2583 33.25 21 33.25ZM21 29.75C24.2958 29.75 27.3219 28.8823 30.0781 27.1469C32.8344 25.4115 34.9417 23.0708 36.4 20.125C34.9417 17.1792 32.8344 14.8385 30.0781 13.1031C27.3219 11.3677 24.2958 10.5 21 10.5C17.7042 10.5 14.6781 11.3677 11.9219 13.1031C9.16562 14.8385 7.05833 17.1792 5.6 20.125C7.05833 23.0708 9.16562 25.4115 11.9219 27.1469C14.6781 28.8823 17.7042 29.75 21 29.75Z" fill="#49B3FF"/>
</g>
</svg>
